<!-- Note: README hero keeps Janus as the left anchor and uses one shared 5.2s prompt/Star timeline; see note://972afef3-2fc7-49de-a3ee-7e041225d28c/a162efb4-23a7-4468-95e6-7163fe7efdc0 -->
<svg xmlns="http://www.w3.org/2000/svg" width="760" height="180" viewBox="0 0 760 180" role="img" aria-labelledby="jhTitle jhDesc">
<title id="jhTitle">JanusX pixel header</title>
<desc id="jhDesc">High-resolution pixel Janus capsule with layered ink outline, warm shell highlights, double-eyes glancing left and right, blinking, and cheering with hearts when starred.</desc>
<style>
text{letter-spacing:0}
text{font-family:"Cascadia Code","SFMono-Regular",Consolas,"Liberation Mono","PingFang SC","Hiragino Sans GB","Microsoft YaHei",monospace}
g[shape-rendering="crispEdges"]{transform:translate(8px,35px) scale(10)}
.pf{visibility:hidden;animation-duration:6000ms;animation-timing-function:step-end;animation-iteration-count:infinite}
.pf0{animation-name:pf0}.pf1{animation-name:pf1}.pf2{animation-name:pf2}.pf3{animation-name:pf3}.pf4{animation-name:pf4}
@keyframes pf0{0%,16.67%,33.33%{visibility:visible}8.33%,25%,41.67%,46%,50%,54%,58.33%,66.67%,75%,83.33%,91.67%,100%{visibility:hidden}}@keyframes pf1{8.33%,41.67%{visibility:visible}0%,16.67%,25%,33.33%,46%,50%,54%,58.33%,66.67%,75%,83.33%,91.67%,100%{visibility:hidden}}@keyframes pf2{25%{visibility:visible}0%,8.33%,16.67%,33.33%,41.67%,46%,50%,54%,58.33%,66.67%,75%,83.33%,91.67%,100%{visibility:hidden}}@keyframes pf3{46%,50%{visibility:visible}0%,8.33%,16.67%,25%,33.33%,41.67%,54%,58.33%,66.67%,75%,83.33%,91.67%,100%{visibility:hidden}}@keyframes pf4{54%,58.33%,66.67%,75%,83.33%,91.67%{visibility:visible}0%,8.33%,16.67%,25%,33.33%,41.67%,46%,50%,100%{visibility:hidden}}
.sqf{visibility:hidden;animation-duration:6000ms;animation-timing-function:step-end;animation-iteration-count:infinite}
.sq0{animation-name:sq0}.sq1{animation-name:sq1}.sq2{animation-name:sq2}.sq3{animation-name:sq3}.sq4{animation-name:sq4}
@keyframes sq0{0%,16.67%,33.33%{visibility:visible}8.33%,25%,41.67%,46%,50%,54%,58.33%,66.67%,75%,83.33%,91.67%,100%{visibility:hidden}}@keyframes sq1{8.33%,41.67%{visibility:visible}0%,16.67%,25%,33.33%,46%,50%,54%,58.33%,66.67%,75%,83.33%,91.67%,100%{visibility:hidden}}@keyframes sq2{25%{visibility:visible}0%,8.33%,16.67%,33.33%,41.67%,46%,50%,54%,58.33%,66.67%,75%,83.33%,91.67%,100%{visibility:hidden}}@keyframes sq3{46%,50%{visibility:visible}0%,8.33%,16.67%,25%,33.33%,41.67%,54%,58.33%,66.67%,75%,83.33%,91.67%,100%{visibility:hidden}}@keyframes sq4{54%,58.33%,66.67%,75%,83.33%,91.67%{visibility:visible}0%,8.33%,16.67%,25%,33.33%,41.67%,46%,50%,100%{visibility:hidden}}
.fx{opacity:0;animation-duration:6000ms;animation-timing-function:ease-in-out;animation-iteration-count:infinite}
.fx-hearts{animation-name:fxHearts}
@keyframes fxHearts{0%,54%{opacity:0}58%,95%{opacity:1}100%{opacity:0}}
.float{animation:floatUp 1600ms ease-in-out infinite}
.float.d2{animation-delay:800ms}
@keyframes floatUp{0%,100%{transform:translateY(0)}50%{transform:translateY(-4px)}}
.loop{opacity:0;animation-duration:5200ms;animation-timing-function:ease-in-out;animation-iteration-count:infinite}
.t-tag{animation-name:tTag}.t-ask{animation-name:tAsk}.t-thanks{animation-name:tThanks}
.s-idle{animation-name:sIdle}.s-lit{animation-name:sLit}
@keyframes tTag{0%{opacity:0;transform:translateY(6px)}6%,19%{opacity:1;transform:translateY(0)}25%,100%{opacity:0;transform:translateY(-4px)}}
@keyframes tAsk{0%,25%{opacity:0;transform:translateY(6px)}31%,44%{opacity:1;transform:translateY(0)}50%,100%{opacity:0;transform:translateY(-4px)}}
@keyframes tThanks{0%,50%{opacity:0;transform:translateY(6px)}56%,69%{opacity:1;transform:translateY(0)}75%,100%{opacity:0;transform:translateY(-4px)}}
@keyframes sIdle{0%,25%{opacity:0;transform:translateY(6px)}31%,44%{opacity:1;transform:translateY(0)}50%,100%{opacity:0}}
@keyframes sLit{0%,75%{opacity:0;transform:translateY(6px)}81%,94%{opacity:1;transform:translateY(0)}100%{opacity:0}}
.word{fill:#1C343B}.desc{fill:#5A6B6E}.rule{stroke:#C9BFA4}
.ln{fill:#1C343B}
.bubble{fill:#1B2F35}.bubble-t{fill:#F1E7CB}
.star-idle{fill:#FFFFFF;stroke:#1C343B;stroke-width:2}.star-idle-t{fill:#1C343B}
.star-lit{fill:#E3B341}.star-lit-t{fill:#1F2328}
.xc2{fill:#1C343B}
.caps{fill:#EFE4C5}.ceye{fill:#1C343B}
.jx-hi{fill:#FFF4D2}.jx-shadow{fill:#A99F89}
@media (prefers-color-scheme:dark){
.word{fill:#F1E7CB}.desc{fill:#9AA4AD}.rule{stroke:#3A4A4F}
.ln{fill:#F1E7CB}
.bubble{stroke:#F1E7CB;stroke-width:1.5}
.star-idle{fill:none;stroke:#F1E7CB}.star-idle-t{fill:#F1E7CB}
.xc2{fill:#F1E7CB}
.caps{fill:#1B2F35}.ceye{fill:#F1E7CB}
.jx-hi{fill:#FFF4D2}.jx-shadow{fill:#101D21}
}
</style>
<g shape-rendering="crispEdges"><g class="pf pf0"><rect x="4" y="3" width="8" height="1" class="ln"/><rect x="2" y="4" width="2" height="1" class="ln"/><rect x="12" y="4" width="2" height="1" class="ln"/><rect x="1" y="5" width="1" height="1" class="ln"/><rect x="14" y="5" width="1" height="1" class="ln"/><rect x="0" y="6" width="1" height="2" class="ln"/><rect x="15" y="6" width="1" height="2" class="ln"/><rect x="1" y="8" width="1" height="1" class="ln"/><rect x="14" y="8" width="1" height="1" class="ln"/><rect x="2" y="9" width="2" height="1" class="ln"/><rect x="12" y="9" width="2" height="1" class="ln"/><rect x="4" y="10" width="8" height="1" class="ln"/><rect x="4" y="4" width="8" height="1" class="caps"/><rect x="2" y="5" width="12" height="1" class="caps"/><rect x="1" y="6" width="14" height="2" class="caps"/><rect x="2" y="8" width="12" height="1" class="caps"/><rect x="4" y="9" width="8" height="1" class="caps"/><rect x="5" y="5" width="2" height="4" class="ceye"/><rect x="9" y="5" width="2" height="4" class="ceye"/></g><g class="pf pf1"><rect x="4" y="3" width="8" height="1" class="ln"/><rect x="2" y="4" width="2" height="1" class="ln"/><rect x="12" y="4" width="2" height="1" class="ln"/><rect x="1" y="5" width="1" height="1" class="ln"/><rect x="14" y="5" width="1" height="1" class="ln"/><rect x="0" y="6" width="1" height="2" class="ln"/><rect x="15" y="6" width="1" height="2" class="ln"/><rect x="1" y="8" width="1" height="1" class="ln"/><rect x="14" y="8" width="1" height="1" class="ln"/><rect x="2" y="9" width="2" height="1" class="ln"/><rect x="12" y="9" width="2" height="1" class="ln"/><rect x="4" y="10" width="8" height="1" class="ln"/><rect x="4" y="4" width="8" height="1" class="caps"/><rect x="2" y="5" width="12" height="1" class="caps"/><rect x="1" y="6" width="14" height="2" class="caps"/><rect x="2" y="8" width="12" height="1" class="caps"/><rect x="4" y="9" width="8" height="1" class="caps"/><rect x="4" y="5" width="2" height="4" class="ceye"/><rect x="8" y="5" width="2" height="4" class="ceye"/></g><g class="pf pf2"><rect x="4" y="3" width="8" height="1" class="ln"/><rect x="2" y="4" width="2" height="1" class="ln"/><rect x="12" y="4" width="2" height="1" class="ln"/><rect x="1" y="5" width="1" height="1" class="ln"/><rect x="14" y="5" width="1" height="1" class="ln"/><rect x="0" y="6" width="1" height="2" class="ln"/><rect x="15" y="6" width="1" height="2" class="ln"/><rect x="1" y="8" width="1" height="1" class="ln"/><rect x="14" y="8" width="1" height="1" class="ln"/><rect x="2" y="9" width="2" height="1" class="ln"/><rect x="12" y="9" width="2" height="1" class="ln"/><rect x="4" y="10" width="8" height="1" class="ln"/><rect x="4" y="4" width="8" height="1" class="caps"/><rect x="2" y="5" width="12" height="1" class="caps"/><rect x="1" y="6" width="14" height="2" class="caps"/><rect x="2" y="8" width="12" height="1" class="caps"/><rect x="4" y="9" width="8" height="1" class="caps"/><rect x="6" y="5" width="2" height="4" class="ceye"/><rect x="10" y="5" width="2" height="4" class="ceye"/></g><g class="pf pf3"><rect x="4" y="3" width="8" height="1" class="ln"/><rect x="2" y="4" width="2" height="1" class="ln"/><rect x="12" y="4" width="2" height="1" class="ln"/><rect x="1" y="5" width="1" height="1" class="ln"/><rect x="14" y="5" width="1" height="1" class="ln"/><rect x="0" y="6" width="1" height="2" class="ln"/><rect x="15" y="6" width="1" height="2" class="ln"/><rect x="1" y="8" width="1" height="1" class="ln"/><rect x="14" y="8" width="1" height="1" class="ln"/><rect x="2" y="9" width="2" height="1" class="ln"/><rect x="12" y="9" width="2" height="1" class="ln"/><rect x="4" y="10" width="8" height="1" class="ln"/><rect x="4" y="4" width="8" height="1" class="caps"/><rect x="2" y="5" width="12" height="1" class="caps"/><rect x="1" y="6" width="14" height="2" class="caps"/><rect x="2" y="8" width="12" height="1" class="caps"/><rect x="4" y="9" width="8" height="1" class="caps"/><rect x="5" y="6" width="2" height="1" class="ceye"/><rect x="9" y="6" width="2" height="1" class="ceye"/></g><g class="pf pf4"><rect x="4" y="3" width="8" height="1" class="ln"/><rect x="2" y="4" width="2" height="1" class="ln"/><rect x="12" y="4" width="2" height="1" class="ln"/><rect x="1" y="5" width="1" height="1" class="ln"/><rect x="14" y="5" width="1" height="1" class="ln"/><rect x="0" y="6" width="1" height="2" class="ln"/><rect x="15" y="6" width="1" height="2" class="ln"/><rect x="1" y="8" width="1" height="1" class="ln"/><rect x="14" y="8" width="1" height="1" class="ln"/><rect x="2" y="9" width="2" height="1" class="ln"/><rect x="12" y="9" width="2" height="1" class="ln"/><rect x="4" y="10" width="8" height="1" class="ln"/><rect x="4" y="4" width="8" height="1" class="caps"/><rect x="2" y="5" width="12" height="1" class="caps"/><rect x="1" y="6" width="14" height="2" class="caps"/><rect x="2" y="8" width="12" height="1" class="caps"/><rect x="4" y="9" width="8" height="1" class="caps"/><rect x="5" y="5" width="1" height="1" class="ceye"/><rect x="4" y="6" width="1" height="1" class="ceye"/><rect x="6" y="6" width="1" height="1" class="ceye"/><rect x="10" y="5" width="1" height="1" class="ceye"/><rect x="9" y="6" width="1" height="1" class="ceye"/><rect x="11" y="6" width="1" height="1" class="ceye"/></g><g class="fx fx-hearts"><g class="float"><rect x="3" y="-1" width="3" height="1" fill="#D43D2A"/><rect x="4" y="-2" width="1" height="3" fill="#D43D2A"/></g><g class="float d2"><rect x="9" y="-1" width="3" height="1" fill="#D43D2A"/><rect x="10" y="-2" width="1" height="3" fill="#D43D2A"/></g><g class="float"><rect x="6" y="-1" width="3" height="1" fill="#D43D2A"/><rect x="7" y="-2" width="1" height="3" fill="#D43D2A"/></g></g></g>
<g transform="translate(214,22)"><rect x="20" y="0" width="20" height="10" class="word"/><rect x="30" y="10" width="10" height="10" class="word"/><rect x="30" y="20" width="10" height="10" class="word"/><rect x="0" y="30" width="10" height="10" class="word"/><rect x="30" y="30" width="10" height="10" class="word"/><rect x="10" y="40" width="20" height="10" class="word"/><rect x="60" y="0" width="20" height="10" class="word"/><rect x="50" y="10" width="10" height="10" class="word"/><rect x="80" y="10" width="10" height="10" class="word"/><rect x="50" y="20" width="40" height="10" class="word"/><rect x="50" y="30" width="10" height="10" class="word"/><rect x="80" y="30" width="10" height="10" class="word"/><rect x="50" y="40" width="10" height="10" class="word"/><rect x="80" y="40" width="10" height="10" class="word"/><rect x="100" y="0" width="10" height="10" class="word"/><rect x="130" y="0" width="10" height="10" class="word"/><rect x="100" y="10" width="20" height="10" class="word"/><rect x="130" y="10" width="10" height="10" class="word"/><rect x="100" y="20" width="10" height="10" class="word"/><rect x="120" y="20" width="20" height="10" class="word"/><rect x="100" y="30" width="10" height="10" class="word"/><rect x="130" y="30" width="10" height="10" class="word"/><rect x="100" y="40" width="10" height="10" class="word"/><rect x="130" y="40" width="10" height="10" class="word"/><rect x="150" y="0" width="10" height="10" class="word"/><rect x="180" y="0" width="10" height="10" class="word"/><rect x="150" y="10" width="10" height="10" class="word"/><rect x="180" y="10" width="10" height="10" class="word"/><rect x="150" y="20" width="10" height="10" class="word"/><rect x="180" y="20" width="10" height="10" class="word"/><rect x="150" y="30" width="10" height="10" class="word"/><rect x="180" y="30" width="10" height="10" class="word"/><rect x="160" y="40" width="20" height="10" class="word"/><rect x="210" y="0" width="30" height="10" class="word"/><rect x="200" y="10" width="10" height="10" class="word"/><rect x="210" y="20" width="20" height="10" class="word"/><rect x="230" y="30" width="10" height="10" class="word"/><rect x="200" y="40" width="30" height="10" class="word"/><rect x="250" y="0" width="10" height="10" class="xc1" fill="#D43D2A"/><rect x="290" y="0" width="10" height="10" class="xc2" fill="#1C343B"/><rect x="260" y="10" width="10" height="10" class="xc1" fill="#D43D2A"/><rect x="280" y="10" width="10" height="10" class="xc2" fill="#1C343B"/><rect x="270" y="20" width="10" height="10" class="xc1" fill="#D43D2A"/><rect x="260" y="30" width="10" height="10" class="xc2" fill="#1C343B"/><rect x="280" y="30" width="10" height="10" class="xc1" fill="#D43D2A"/><rect x="250" y="40" width="10" height="10" class="xc2" fill="#1C343B"/><rect x="290" y="40" width="10" height="10" class="xc1" fill="#D43D2A"/></g>
<text class="desc" x="214" y="92" font-size="15" font-family="Cascadia Code,SFMono-Regular,Consolas,Liberation Mono,monospace">PROJECTS  TERMINALS  AI  IN ONE DESKTOP</text>
<line class="rule" x1="214" y1="103" x2="742" y2="103" stroke-width="1"/>
<g>
<rect class="bubble" x="214" y="113" width="252" height="34" rx="9"/>
<path class="bubble" d="M266 147l8 8 8-8z"/>
<text class="bubble-t loop t-tag" x="340" y="130" font-size="14" text-anchor="middle" dominant-baseline="central" font-family="Cascadia Code,SFMono-Regular,Consolas,Liberation Mono,monospace">BUILD WITH JANUSX</text>
<text class="bubble-t loop t-ask" x="340" y="130" font-size="13" text-anchor="middle" dominant-baseline="central" font-family="Cascadia Code,SFMono-Regular,Consolas,Liberation Mono,monospace">LIKE IT? GIVE US A STAR</text>
<text class="bubble-t loop t-thanks" x="340" y="130" font-size="13" text-anchor="middle" dominant-baseline="central" font-family="Cascadia Code,SFMono-Regular,Consolas,Liberation Mono,monospace">THANKS, STAR RECEIVED</text>
</g>
<a href="https://github.com/TreeX-X/JanusX"><g>
<g class="loop s-idle"><rect class="star-idle" x="492" y="111" width="250" height="38" rx="9"/><path d="M511 117l3.6 7.3 8.1 1.2-5.9 5.7 1.4 8.1-7.2-3.8-7.2 3.8 1.4-8.1-5.9-5.7 8.1-1.2z" fill="none" stroke="#5A6B6E" stroke-width="1.8"/><text class="star-idle-t" x="625" y="130" font-size="14" font-weight="700" text-anchor="middle" dominant-baseline="central" font-family="Cascadia Code,SFMono-Regular,Consolas,Liberation Mono,monospace">STAR JANUSX</text></g>
<g class="loop s-lit"><rect class="star-lit" x="492" y="111" width="250" height="38" rx="9"/><path d="M511 117l3.6 7.3 8.1 1.2-5.9 5.7 1.4 8.1-7.2-3.8-7.2 3.8 1.4-8.1-5.9-5.7 8.1-1.2z" fill="#D43D2A" stroke="#A92E20" stroke-width="1"/><text class="star-lit-t" x="625" y="130" font-size="14" font-weight="700" text-anchor="middle" dominant-baseline="central" font-family="Cascadia Code,SFMono-Regular,Consolas,Liberation Mono,monospace">STARRED +1</text></g>
</g></a>
<g shape-rendering="crispEdges" aria-hidden="true">
  <rect x="0" y="2" width="16" height="11" class="ln"/>
  <rect x="2" y="4" width="12" height="7" class="caps"/>
  <rect x="3" y="4" width="10" height="1" class="jx-hi"/>
  <rect x="3" y="10" width="10" height="1" class="jx-shadow"/>
</g>
<g shape-rendering="crispEdges" aria-hidden="true">
  <g class="sqf sq0"><rect x="5" y="6" width="2" height="3" class="ceye"/><rect x="9" y="6" width="2" height="3" class="ceye"/></g>
  <g class="sqf sq1"><rect x="4" y="6" width="2" height="3" class="ceye"/><rect x="8" y="6" width="2" height="3" class="ceye"/></g>
  <g class="sqf sq2"><rect x="6" y="6" width="2" height="3" class="ceye"/><rect x="10" y="6" width="2" height="3" class="ceye"/></g>
  <g class="sqf sq3"><rect x="5" y="7" width="2" height="1" class="ceye"/><rect x="9" y="7" width="2" height="1" class="ceye"/></g>
  <g class="sqf sq4"><rect x="5" y="6" width="1" height="1" class="ceye"/><rect x="6" y="7" width="1" height="1" class="ceye"/><rect x="10" y="6" width="1" height="1" class="ceye"/><rect x="9" y="7" width="1" height="1" class="ceye"/></g>
</g>
</svg>
